<svg preserveAspectRatio="none" width="100%" height="100%" overflow="visible" style="display: block;" viewBox="0 0 39 21" fill="none" xmlns="http://www.w3.org/2000/svg">
<path id="Subtract" d="M39 21H0V0H39V21ZM23.9873 5.63965C23.2621 5.63967 22.6329 5.77342 22.0996 6.04004C21.5663 6.29604 21.1235 6.66949 20.7715 7.16016C20.4302 7.6508 20.1746 8.2591 20.0039 8.98438C19.8439 9.69898 19.7637 10.5095 19.7637 11.416C19.7637 13.048 20.0302 14.3546 20.5635 15.3359C21.0968 16.3172 21.934 16.9096 23.0752 17.1123V17.7363C23.0753 18.3975 23.2466 18.9257 23.5879 19.3203C23.9292 19.7253 24.4943 19.9277 25.2832 19.9277H27.4434V18.4082H24.8994V17.1123C26.0407 16.9096 26.8778 16.3172 27.4111 15.3359C27.9445 14.3546 28.2119 13.048 28.2119 11.416C28.2119 9.59208 27.8701 8.17348 27.1875 7.16016C26.5048 6.14682 25.438 5.63965 23.9873 5.63965ZM33.7412 8.55176C32.6106 8.55176 31.72 8.78157 31.0693 9.24023C30.4295 9.69883 30.1095 10.3598 30.1094 11.2236C30.1094 11.6288 30.1838 11.9757 30.333 12.2637C30.4823 12.5409 30.6796 12.7708 30.9248 12.9521C31.1807 13.1334 31.4692 13.2771 31.7891 13.3838C32.1196 13.4798 32.4556 13.5551 32.7969 13.6084L34.125 13.8164C34.4663 13.8697 34.7387 13.949 34.9414 14.0557C35.1547 14.1623 35.2617 14.3654 35.2617 14.6641C35.2617 15.016 35.1062 15.2776 34.7969 15.4482C34.4876 15.6187 34.0771 15.7041 33.5654 15.7041C32.979 15.7041 32.4616 15.6029 32.0137 15.4004C31.5765 15.1978 31.187 14.9093 30.8457 14.5361L29.6455 15.624C30.0188 16.104 30.536 16.4884 31.1973 16.7764C31.8585 17.0536 32.6424 17.1923 33.5488 17.1924C34.7222 17.1924 35.6345 16.9517 36.2852 16.4717C36.9464 15.981 37.2773 15.3093 37.2773 14.4561C37.2773 14.0507 37.203 13.709 37.0537 13.4316C36.9044 13.1544 36.7012 12.9254 36.4453 12.7441C36.2 12.5628 35.9117 12.4241 35.5811 12.3281C35.2611 12.2215 34.9252 12.1412 34.5732 12.0879L33.2617 11.8799C32.9205 11.8266 32.643 11.7463 32.4297 11.6396C32.2164 11.5223 32.1094 11.3143 32.1094 11.0156C32.1096 10.3652 32.6326 10.04 33.6777 10.04C34.2748 10.0401 34.7655 10.1411 35.1494 10.3438C35.5438 10.5356 35.8582 10.7598 36.0928 11.0156L37.165 9.83203C36.8024 9.42675 36.3387 9.11168 35.7734 8.8877C35.2188 8.6637 34.5412 8.55176 33.7412 8.55176ZM1.32812 5.83203V17H3.42383V12.2002H8.1123V10.4717H3.42383V7.55957H8.62402V5.83203H1.32812ZM12.9375 5.83203L9.80176 17H11.9141L12.6816 14.168H15.9941L16.7773 17H19.002L15.8496 5.83203H12.9375ZM23.9873 7.35156C24.7337 7.35156 25.251 7.62926 25.5391 8.18359C25.8377 8.73826 25.9873 9.49605 25.9873 10.4561V12.3604C25.9873 12.8401 25.9506 13.2774 25.876 13.6719C25.812 14.0559 25.6991 14.3818 25.5391 14.6484C25.3898 14.9149 25.1875 15.1232 24.9316 15.2725C24.6757 15.4111 24.3606 15.4805 23.9873 15.4805C23.241 15.4804 22.7186 15.2027 22.4199 14.6484C22.1319 14.0938 21.9873 13.336 21.9873 12.376V10.4561C21.9873 9.49605 22.1319 8.73826 22.4199 8.18359C22.7186 7.6293 23.241 7.35161 23.9873 7.35156ZM14.4102 7.89648L15.6416 12.4561H13.0498L14.2822 7.89648H14.4102Z" fill="var(--fill-0, white)"/>
</svg>
