<svg width="100" height="100" viewBox="0 0 100 100" fill="none" xmlns="http://www.w3.org/2000/svg">
<path d="M35 70V30H39.2953V39.8701H59.6193C60.7717 39.8701 61.8193 40.1645 62.7622 40.7532C63.74 41.3074 64.5082 42.0693 65.067 43.039C65.6606 43.974 65.9575 45.013 65.9575 46.1558V70H61.6622V46.1558C61.6622 45.6017 61.4527 45.1342 61.0336 44.7532C60.6495 44.3377 60.178 44.1299 59.6193 44.1299H41.3905C40.8318 44.1299 40.3429 44.3377 39.9239 44.7532C39.5048 45.1342 39.2953 45.6017 39.2953 46.1558V70H35Z" fill="white"/>
<rect x="2" y="2" width="96" height="96" rx="6" stroke="white" stroke-width="4"/>
</svg>
