<svg preserveAspectRatio="none" width="100%" height="100%" overflow="visible" style="display: block;" viewBox="0 0 74 26" fill="none" xmlns="http://www.w3.org/2000/svg">
<g id="flag-standalone-bw 1" clip-path="url(#clip0_6_41)">
<path id="Subtract" d="M7.90678 1.6077C8.41716 1.25976 15.8336 -3.42934 33.4019 5.03153C49.9968 13.0238 66.731 3.67097 69.7378 1.80106C69.8376 1.73982 70.0038 1.89865 69.9507 2.00321L66.9283 7.91239C66.8808 8.00545 66.9463 8.11602 67.0503 8.11746C67.8365 8.12843 70.5772 8.16034 73.646 8.11942C73.7733 8.11784 73.845 8.26313 73.7525 8.35086C71.6901 10.3053 57.1434 23.6966 45.7222 23.6966C33.4023 23.6965 26.7302 20.8062 18.8521 18.6204C11.0944 16.4681 7.36039 15.7458 2.61382 16.5374C2.51144 16.5545 2.42426 16.4589 2.45268 16.3587L4.29057 9.87723L7.86284 1.66239C7.87277 1.63957 7.88629 1.6217 7.90678 1.6077ZM46.2349 12.8919C45.5297 11.8912 44.5933 11.6866 43.5054 12.5716C42.8543 13.2198 42.4441 14.4373 42.4898 16.2786C42.5806 19.0269 43.7152 20.6057 45.6509 20.2913C47.5863 19.9766 47.1301 18.5741 46.9517 18.5276C46.8094 18.4903 46.7729 18.3258 45.98 18.6253C45.186 18.925 44.5879 18.5746 44.0874 17.3548C43.757 16.5292 43.5783 14.9261 44.1753 14.0306C44.3535 13.7657 44.5226 13.6927 44.6119 13.638C44.9683 13.4196 45.3339 13.6304 45.397 13.6858C46.3967 14.4126 46.5922 13.6076 46.2349 12.8919ZM35.4537 11.219C35.5855 9.92025 34.1285 8.97477 33.732 10.1292C33.2738 11.5347 33.8483 13.0153 32.7027 15.6907C32.4295 16.3442 31.7586 17.543 31.6792 17.7132C31.0446 18.9209 32.3338 19.6329 33.7535 17.5227C34.0974 17.0398 34.4761 15.804 34.4761 15.804L35.0943 15.7347C35.0993 15.7566 35.6347 18.1247 35.7583 19.1419C35.8913 20.128 37.6295 20.6886 37.6548 18.7532C37.5927 18.0898 37.3631 17.1931 36.9302 16.054C36.9302 16.054 36.6472 15.219 36.3736 15.1106C36.399 15.0853 38.3158 13.1675 38.4996 12.4202C38.6931 11.6324 38.3391 11.0849 36.8218 12.3704C35.3143 13.648 35.1307 14.0625 35.1285 14.0677C35.1309 14.0565 35.4895 12.4426 35.4537 11.219ZM49.273 13.0989C48.896 10.766 47.8231 11.5703 47.8326 12.6136C47.8422 13.6569 48.1841 15.3944 48.3248 16.6634C48.4654 17.9323 48.4743 18.2757 48.6138 19.0208C48.7532 19.765 52.5042 18.6496 52.6021 18.5931C52.6914 18.5388 53.1212 18.4946 53.273 18.0325C53.4605 17.5795 52.6304 17.3793 52.1802 17.5315C51.7299 17.6837 50.0667 18.0602 49.8433 17.7903C49.6202 17.5191 49.7384 14.6061 49.273 13.0989ZM32.0181 10.2473C32.2659 9.54624 31.7501 7.96049 29.9507 8.22489C27.3455 8.24423 26.4433 12.8282 26.4429 12.8304C26.4429 12.8304 26.0103 15.0518 26.6939 16.5657C27.3152 18.0253 28.8222 18.0297 29.1148 18.0667C30.8251 17.55 30.2393 16.4053 29.9468 16.3684C29.5744 16.3494 29.0696 16.4106 28.6617 16.0764C27.9701 15.5165 28.0925 14.0959 28.2427 13.3313C28.5965 12.0458 29.3755 9.49261 30.6167 10.1165C31.3618 11.0728 31.8853 10.634 32.0181 10.2473ZM57.065 11.222C56.6318 10.0309 55.7045 9.75541 55.5699 10.9173C55.561 11.2625 55.7375 11.7356 55.8912 12.3538C56.1081 13.6444 56.3613 15.2529 56.0103 15.8968C55.713 16.3226 55.0826 16.2388 54.7759 15.7747C54.2166 14.6283 53.8187 11.9015 53.4761 11.2737C53.0251 10.4642 52.2591 10.925 52.3404 11.679C52.422 12.4332 52.6385 13.1069 53.3248 15.4436C54.0377 17.6706 56.0642 17.3774 56.3082 17.3235C57.2451 17.0993 57.434 16.1824 57.6138 15.4563C57.8024 14.6937 57.426 12.5493 57.065 11.222ZM24.1871 5.94266C23.6653 5.88698 22.9632 6.09198 22.3521 7.31375C21.5254 8.93993 19.7641 12.1655 18.9371 13.6389C18.164 14.8966 19.5056 16.1155 20.9976 13.2044L22.896 13.4173C22.896 13.4173 22.6172 14.2265 22.357 15.1165C21.7999 16.5817 23.2662 16.838 24.1021 15.4817C24.3451 15.1213 25.7188 9.77245 24.9527 6.86356C24.7186 6.42183 24.4122 5.96138 24.1871 5.94266ZM61.6099 8.43778C60.8794 8.17279 59.9444 8.43287 58.6978 9.18973C57.9501 9.6128 58.1011 9.9206 58.146 10.2014C58.146 10.2014 59.583 14.8431 59.6011 15.2327C59.6288 15.4315 60.2336 15.4338 60.8033 15.2727C62.4954 14.7075 63.4049 13.7937 63.2642 12.8235C63.1235 11.8536 62.5825 11.1124 61.8433 11.0374C61.8474 11.0292 62.0668 10.5889 62.1988 10.0511C62.3139 9.42668 62.0375 8.70165 61.6099 8.43778ZM14.1548 6.35575C14.0341 2.97223 12.0244 3.25119 11.773 4.67899C11.5861 5.74069 11.2264 7.56438 10.4722 9.92118C8.90562 13.6801 11.5781 13.0678 12.3433 11.5061C12.7968 10.6437 13.2632 9.70731 13.2632 9.70731L15.6636 10.6321C15.6615 10.6442 15.4696 11.7354 15.273 12.6389C14.5187 14.9958 16.7175 14.7129 17.3257 12.972C17.5964 12.0766 18.8577 8.33767 19.2056 6.36063C19.7301 5.09553 17.9358 3.94075 17.1236 5.98465C16.6894 6.73722 15.9839 8.38602 15.9839 8.38602C15.9839 8.38602 14.0057 7.65168 13.9781 7.57059C13.9007 7.3679 14.1441 6.8448 14.1548 6.35575ZM60.0533 12.6165C60.0533 12.6165 61.7257 11.4562 62.1988 12.6165C62.6711 13.7763 60.4585 14.2201 60.4644 14.3382C60.4821 14.4197 60.0533 12.6165 60.0533 12.6165ZM59.2144 10.0149C60.0428 9.72764 60.9956 9.24187 61.1744 10.0569C61.3512 10.8642 59.8698 11.4713 59.8394 11.4837L59.2144 10.0149ZM23.5318 8.41532C24.1159 8.06716 23.5962 11.3772 23.5962 11.3772L21.7251 11.0559L23.5318 8.41532Z" fill="var(--fill-0, white)"/>
<path id="Vector" d="M7.91689 0.984336C7.91689 0.984336 8.06272 0.815818 8.33834 0.850932C8.61395 0.886046 8.54596 1.20547 8.44215 1.41359C8.33834 1.62172 5.72345 7.007 3.83101 13.0814C1.93857 19.1559 2.08327 25.6467 2.08327 26H0.00138391C-0.0269923 25.3641 0.36742 19.2529 2.45092 13.0814C4.53443 6.90998 7.64077 1.19883 7.91689 0.984336Z" fill="var(--fill-0, white)"/>
</g>
<defs>
<clipPath id="clip0_6_41">
<rect width="74" height="26" fill="white"/>
</clipPath>
</defs>
</svg>
