<svg preserveAspectRatio="none" width="100%" height="100%" overflow="visible" style="display: block;" viewBox="0 0 239 40" fill="none" xmlns="http://www.w3.org/2000/svg">
<g id="homelab">
<path d="M0 40V0H4.29528V9.87013H24.6193C25.7717 9.87013 26.8193 10.1645 27.7622 10.7532C28.74 11.3074 29.5082 12.0693 30.067 13.039C30.6606 13.974 30.9575 15.013 30.9575 16.1558V40H26.6622V16.1558C26.6622 15.6017 26.4527 15.1342 26.0336 14.7532C25.6495 14.3377 25.178 14.1299 24.6193 14.1299H6.39054C5.83181 14.1299 5.34291 14.3377 4.92386 14.7532C4.50481 15.1342 4.29528 15.6017 4.29528 16.1558V40H0Z" fill="var(--fill-0, white)"/>
<path d="M41.1702 40C40.0178 40 38.9527 39.7229 37.9749 39.1688C37.0321 38.5801 36.2638 37.8182 35.6702 36.8831C35.1114 35.9134 34.8321 34.8571 34.8321 33.7143V16.1558C34.8321 15.013 35.1114 13.974 35.6702 13.039C36.2638 12.0693 37.0321 11.3074 37.9749 10.7532C38.9527 10.1645 40.0178 9.87013 41.1702 9.87013H59.399C60.5863 9.87013 61.6514 10.1645 62.5943 10.7532C63.572 11.3074 64.3403 12.0693 64.899 13.039C65.4927 13.974 65.7895 15.013 65.7895 16.1558V33.7143C65.7895 34.8571 65.4927 35.9134 64.899 36.8831C64.3403 37.8182 63.572 38.5801 62.5943 39.1688C61.6514 39.7229 60.5863 40 59.399 40H41.1702ZM41.1702 35.7403H59.399C59.9577 35.7403 60.4292 35.5498 60.8133 35.1688C61.2323 34.7532 61.4419 34.2684 61.4419 33.7143V16.1558C61.4419 15.6017 61.2323 15.1342 60.8133 14.7532C60.4292 14.3377 59.9577 14.1299 59.399 14.1299H41.1702C40.6115 14.1299 40.1226 14.3377 39.7035 14.7532C39.3194 15.1342 39.1273 15.6017 39.1273 16.1558V33.7143C39.1273 34.2684 39.3194 34.7532 39.7035 35.1688C40.1226 35.5498 40.6115 35.7403 41.1702 35.7403Z" fill="var(--fill-0, white)"/>
<path d="M71.2572 40V9.87013H111.381C112.569 9.87013 113.634 10.1645 114.577 10.7532C115.555 11.3074 116.323 12.0693 116.882 13.039C117.44 13.974 117.72 15.013 117.72 16.1558V40H113.477V16.1558C113.477 15.6017 113.267 15.1342 112.848 14.7532C112.429 14.3377 111.94 14.1299 111.381 14.1299H98.7575C98.1988 14.1299 97.7099 14.3377 97.2908 14.7532C96.9067 15.1342 96.7147 15.6017 96.7147 16.1558V40H92.367V16.1558C92.367 15.6017 92.1575 15.1342 91.7384 14.7532C91.3543 14.3377 90.8829 14.1299 90.3241 14.1299H77.6478C77.0891 14.1299 76.6002 14.3377 76.1811 14.7532C75.797 15.1342 75.6049 15.6017 75.6049 16.1558V40H71.2572Z" fill="var(--fill-0, white)"/>
<path d="M128.643 40C127.491 40 126.426 39.7229 125.448 39.1688C124.505 38.5801 123.737 37.8182 123.143 36.8831C122.584 35.9134 122.305 34.8571 122.305 33.7143V16.1558C122.305 15.013 122.584 13.974 123.143 13.039C123.737 12.0693 124.505 11.3074 125.448 10.7532C126.426 10.1645 127.491 9.87013 128.643 9.87013H146.872C148.059 9.87013 149.124 10.1645 150.067 10.7532C151.045 11.3074 151.813 12.0693 152.372 13.039C152.966 13.974 153.263 15.013 153.263 16.1558V27.0649H126.6V33.7143C126.6 34.2684 126.792 34.7532 127.177 35.1688C127.596 35.5498 128.084 35.7403 128.643 35.7403H153.263V40H128.643ZM126.6 22.8052H148.915V16.1558C148.915 15.6017 148.705 15.1342 148.286 14.7532C147.902 14.3377 147.431 14.1299 146.872 14.1299H128.643C128.084 14.1299 127.596 14.3377 127.177 14.7532C126.792 15.1342 126.6 15.6017 126.6 16.1558V22.8052Z" fill="var(--fill-0, white)"/>
<path d="M163.941 40C162.788 40 161.723 39.7229 160.745 39.1688C159.802 38.5801 159.034 37.8182 158.441 36.8831C157.882 35.9134 157.602 34.8571 157.602 33.7143V0H161.898V33.7143C161.898 34.2684 162.09 34.7532 162.474 35.1688C162.893 35.5498 163.382 35.7403 163.941 35.7403H169.074V40H163.941Z" fill="var(--fill-0, white)"/>
<path d="M179.236 40C178.083 40 177.018 39.7229 176.04 39.1688C175.097 38.5801 174.329 37.8182 173.736 36.8831C173.177 35.9134 172.897 34.8571 172.897 33.7143V22.8052H199.507V16.1558C199.507 15.6017 199.298 15.1342 198.879 14.7532C198.495 14.3377 198.023 14.1299 197.464 14.1299H172.897V9.87013H197.464C198.652 9.87013 199.717 10.1645 200.66 10.7532C201.637 11.3074 202.406 12.0693 202.964 13.039C203.558 13.974 203.855 15.013 203.855 16.1558V40H179.236ZM179.236 35.7403H199.507V27.0649H177.193V33.7143C177.193 34.2684 177.385 34.7532 177.769 35.1688C178.188 35.5498 178.677 35.7403 179.236 35.7403Z" fill="var(--fill-0, white)"/>
<path d="M208.043 40V0H212.338V9.87013H232.662C233.814 9.87013 234.862 10.1645 235.805 10.7532C236.783 11.3074 237.551 12.0693 238.109 13.039C238.703 13.974 239 15.013 239 16.1558V33.7143C239 34.8571 238.703 35.9134 238.109 36.8831C237.551 37.8182 236.783 38.5801 235.805 39.1688C234.862 39.7229 233.814 40 232.662 40H208.043ZM214.433 35.7403H232.662C233.221 35.7403 233.692 35.5498 234.076 35.1688C234.495 34.7532 234.705 34.2684 234.705 33.7143V16.1558C234.705 15.6017 234.495 15.1342 234.076 14.7532C233.692 14.3377 233.221 14.1299 232.662 14.1299H214.433C213.874 14.1299 213.385 14.3377 212.966 14.7532C212.547 15.1342 212.338 15.6017 212.338 16.1558V33.7143C212.338 34.2684 212.547 34.7532 212.966 35.1688C213.385 35.5498 213.874 35.7403 214.433 35.7403Z" fill="var(--fill-0, white)"/>
</g>
</svg>
